<svg width="272" height="78" viewBox="0 0 272 78" fill="none" xmlns="http://www.w3.org/2000/svg" class="desktop"><g clip-path="url(#clip0_45_204)"><path opacity="0.995" fill-rule="evenodd" clip-rule="evenodd" d="M26.1916 0.151001C26.225 0.36885 26.2563 0.590694 26.2852 0.816799C28.358 5.16633 28.8307 9.68497 27.7027 14.3725C27.2186 16.3427 26.5588 18.2514 25.7235 20.0983C24.6237 22.4579 23.3933 24.7392 22.0325 26.9427C20.3003 29.6967 18.5262 32.422 16.7099 35.1187C15.6673 36.6993 14.6777 38.3151 13.741 39.9657C12.6345 41.9304 11.7518 43.9898 11.0931 46.1444C10.3078 48.945 10.1206 51.7855 10.5314 54.6666C11.2998 60.2795 13.6268 65.1265 17.5123 69.2076C21.2819 73.0493 25.8246 75.5215 31.1397 76.6246C25.1701 77.7333 19.491 76.8989 14.1021 74.1212C8.10867 70.8516 3.98514 66.0003 1.73173 59.5669C0.450034 55.7305 0.120247 51.8156 0.742107 47.8222C1.19413 45.4511 1.96069 43.1874 3.04232 41.031C4.12021 38.9188 5.33264 36.8948 6.67987 34.9589C7.32045 34.046 7.9712 33.1405 8.63237 32.2425C10.288 30.0435 11.9642 27.8597 13.6607 25.691C15.4913 23.3242 17.2298 20.892 18.8763 18.3939C20.6924 15.6212 22.2528 12.7005 23.557 9.63197C24.8187 6.57755 25.697 3.41714 26.1916 0.151001Z" fill="#4DA546"></path><path opacity="0.992" fill-rule="evenodd" clip-rule="evenodd" d="M201.837 4.83823C203.371 4.81106 204.869 5.02865 206.33 5.49071C207.662 5.97515 208.865 6.66758 209.941 7.568C210.497 8.04179 211.027 8.54353 211.533 9.07271C212.573 10.3036 213.25 11.7151 213.565 13.3072C214.501 17.6578 213.426 21.4262 210.342 24.6124C208.759 26.0972 206.878 26.9582 204.699 27.1957C202.724 27.44 200.78 27.289 198.868 26.743C196.955 26.1574 195.31 25.1496 193.933 23.7203C192.772 22.4108 192.014 20.8928 191.66 19.1662C191.239 17.1539 191.221 15.1389 191.606 13.1208C192.109 10.8975 193.246 9.07324 195.017 7.6479C196.298 6.56105 197.752 5.77088 199.376 5.27766C200.189 5.05848 201.009 4.912 201.837 4.83823ZM201.73 7.76774C203.173 7.67773 204.573 7.87747 205.929 8.36696C207.057 8.82423 207.971 9.54782 208.671 10.5375C210.105 12.6038 210.711 14.8942 210.489 17.4085C210.429 18.5894 210.135 19.7079 209.607 20.7641C208.312 22.7967 206.462 23.9906 204.057 24.3461C200.074 24.8737 197.19 23.3602 195.404 19.8054C195.031 18.9745 194.808 18.1044 194.736 17.1955C194.435 14.1615 195.366 11.5825 197.531 9.45887C198.736 8.42422 200.135 7.86069 201.73 7.76774Z" fill="#32AF14"></path><path opacity="0.992" fill-rule="evenodd" clip-rule="evenodd" d="M259.61 4.83821C261.193 4.81158 262.736 5.04701 264.237 5.54396C265.483 6.01747 266.615 6.67448 267.634 7.51472C268.487 8.19677 269.241 8.97362 269.894 9.84502C270.595 10.9233 271.076 12.0951 271.338 13.3604C272.264 17.8037 271.119 21.6166 267.901 24.7989C266.406 26.1201 264.659 26.91 262.659 27.1691C260.554 27.4599 258.486 27.3001 256.454 26.6897C251.792 25.0652 249.344 21.7852 249.112 16.8492C248.997 15.2923 249.157 13.7655 249.593 12.2685C250.192 10.3755 251.275 8.81756 252.843 7.59462C254.391 6.29525 256.165 5.44302 258.165 5.03795C258.649 4.96232 259.131 4.89574 259.61 4.83821ZM259.503 7.76773C260.915 7.68383 262.29 7.87479 263.622 8.34031C264.836 8.81383 265.804 9.59042 266.524 10.6706C267.85 12.6419 268.431 14.8169 268.262 17.1954C268.225 18.441 267.931 19.6216 267.38 20.7375C265.991 22.9149 263.999 24.1355 261.402 24.3994C257.93 24.7552 255.303 23.4547 253.525 20.4978C252.896 19.4192 252.549 18.2562 252.482 17.009C252.233 13.8947 253.263 11.2981 255.571 9.21917C256.732 8.33818 258.042 7.85428 259.503 7.76773Z" fill="#32AF14"></path><path opacity="0.995" fill-rule="evenodd" clip-rule="evenodd" d="M31.8351 5.1578C54.1953 5.15327 76.5555 5.1578 98.9157 5.17112C99.2145 5.25554 99.406 5.44622 99.4908 5.7437C99.5087 29.3308 99.5087 52.9177 99.4908 76.5048C99.406 76.8023 99.2145 76.9929 98.9157 77.0774C95.7061 77.0952 92.4965 77.0952 89.2869 77.0774C88.1071 74.276 87.0105 71.4484 85.9971 68.5951C86.4034 68.9597 86.8134 69.3192 87.2274 69.6737C89.4445 71.1432 91.8608 71.6048 94.4758 71.0586C95.1265 70.9254 95.7596 70.739 96.3748 70.4993C96.5337 70.2852 96.5069 70.0987 96.2946 69.94C92.883 68.2278 89.2722 67.207 85.4622 66.8773C85.2418 66.8089 85.1035 66.6624 85.0476 66.4379C84.9989 66.228 85.057 66.0549 85.2214 65.9186C86.2242 65.3572 87.1515 64.6914 88.0031 63.9212C88.6924 63.306 89.3656 62.6711 90.0225 62.017C91.5711 60.2915 92.6233 58.2941 93.1786 56.0248C93.2532 55.7827 93.173 55.6229 92.9379 55.5454C91.6377 56.159 90.4475 56.9359 89.3672 57.8757C87.7977 59.2689 86.5005 60.8713 85.4755 62.6828C85.1246 63.3907 84.7812 64.1007 84.4458 64.8134C84.2433 64.5438 84.0606 64.2597 83.8975 63.9611C83.5206 63.2282 83.1729 62.4825 82.8544 61.7241C82.8124 61.5326 82.8568 61.364 82.9881 61.218C84.3714 59.8412 85.6553 58.3852 86.8396 56.8504C88.5977 54.432 89.8548 51.7688 90.6109 48.8608C90.7238 48.2395 90.7326 47.6182 90.6376 46.9966C90.4948 46.8368 90.3389 46.8235 90.1696 46.9566C89.4958 47.6187 88.8314 48.289 88.177 48.9674C85.7663 51.6263 83.9922 54.6714 82.8544 58.1021C82.6784 58.8473 82.4735 59.5839 82.2392 60.3126C82.2082 60.3522 82.186 60.348 82.1723 60.2992C81.9487 59.7695 81.7214 59.2414 81.4903 58.7146C81.3584 58.4505 81.2156 58.1929 81.0623 57.9423C80.7804 57.3825 80.7981 56.832 81.1158 56.2911C81.8177 55.3638 82.5131 54.4317 83.2021 53.4948C84.3773 51.8833 85.376 50.161 86.1977 48.3282C87.523 45.1513 88.0668 41.8489 87.8292 38.4211C87.6829 38.2736 87.5179 38.2515 87.3344 38.3545C86.7318 39.1591 86.1659 39.9892 85.636 40.8446C85.0254 41.8654 84.4014 42.8774 83.7638 43.8807C83.0416 45.1411 82.4355 46.4549 81.945 47.8222C81.0714 50.276 80.3806 52.7794 79.8721 55.3324C79.5354 54.8128 79.1922 54.298 78.8424 53.7877C78.6193 53.3962 78.5837 52.988 78.7354 52.5627C79.2545 51.4668 79.7806 50.3748 80.3134 49.2869C80.881 47.7694 81.3624 46.2248 81.7578 44.653C82.4925 41.8329 83.1344 38.9921 83.6835 36.1308C84.0491 34.127 84.2588 32.1075 84.3121 30.072C84.3324 29.1838 84.2032 28.3183 83.9242 27.4754C83.7977 27.1387 83.6327 26.8237 83.4294 26.5299C83.2112 26.4218 83.0373 26.4705 82.9079 26.6764C80.1824 32.773 78.3548 39.1292 77.4248 45.7449C77.2354 47.0078 77.164 48.2773 77.2108 49.5533C77.2309 49.9549 77.271 50.3543 77.3312 50.7517C77.3143 50.8795 77.2429 50.9283 77.1172 50.8982C76.4798 49.9261 75.8422 48.954 75.2048 47.982C75.1174 47.8009 75.0684 47.6102 75.0577 47.4094C75.189 46.5854 75.3361 45.7643 75.499 44.9459C75.7681 44.1419 76.0267 43.3342 76.2747 42.5224C77.1399 39.1996 77.6928 35.8261 77.933 32.4023C78.0338 30.7673 78.0159 29.134 77.8795 27.502C77.5882 24.5309 76.4691 21.9255 74.5228 19.6855C74.3088 19.5319 74.1438 19.5718 74.028 19.8054C73.5043 26.9241 73.2903 34.0527 73.386 41.1908C73.4152 42.6596 73.5891 44.111 73.9076 45.5451C73.9031 45.5673 73.8988 45.5896 73.8942 45.6117C73.7862 45.5132 73.6883 45.4067 73.6 45.2921C73.263 44.7899 72.9065 44.3014 72.5302 43.8274C72.4069 43.5834 72.3266 43.3259 72.2894 43.0551C72.2715 42.5845 72.2715 42.1142 72.2894 41.6436C72.3619 39.3713 72.4242 37.0986 72.4767 34.8258C72.5882 31.3812 72.3919 27.9545 71.8882 24.5459C71.3391 21.1037 70.3939 17.7747 69.0531 14.5589C68.7928 14.0137 68.4986 13.4899 68.1704 12.9876C67.7719 12.4134 67.3531 11.8541 66.9134 11.3098C66.7684 11.1026 66.5988 11.076 66.4052 11.2299C66.2075 15.7768 66.4482 20.3042 67.1273 24.8122C67.287 25.838 67.4742 26.8591 67.689 27.8748C68.2726 30.4749 68.8522 33.0761 69.4275 35.678C69.7311 36.8698 70.0432 38.0594 70.3637 39.2467C70.5752 40.0009 70.8117 40.7466 71.0725 41.4838C70.9644 41.4699 70.8799 41.4167 70.8184 41.324C69.947 40.1125 69.0822 38.8962 68.2239 37.6754C67.7184 36.9944 67.1923 36.3286 66.6459 35.678C66.4825 35.4945 66.3755 35.2815 66.3249 35.0388C66.2599 34.5597 66.1976 34.0804 66.1377 33.6007C66.0061 32.0177 65.8456 30.4374 65.6563 28.8602C65.1844 24.8321 64.0787 20.9884 62.3397 17.3286C61.1572 14.7773 59.784 12.345 58.2207 10.0314C57.8208 9.46472 57.4108 8.90545 56.9903 8.35363C56.8769 8.19464 56.7475 8.04816 56.6025 7.91421C56.3423 7.84922 56.2085 7.95122 56.2013 8.22047C56.3698 10.1976 56.6862 12.1505 57.1508 14.0795C58.1388 18.0604 59.4671 21.9221 61.1361 25.6644C62.1904 27.906 63.1712 30.1785 64.0782 32.4822C64.0977 32.5453 64.1202 32.6073 64.1451 32.6686C64.1362 32.6774 64.1272 32.6864 64.1183 32.6952C63.2509 31.7844 62.4084 30.8523 61.5908 29.8989C61.5461 29.8102 61.5017 29.7212 61.457 29.6326C60.5297 26.1081 59.2906 22.6992 57.7392 19.4059C56.7889 17.4503 55.7102 15.5773 54.5029 13.7865C53.3803 12.2424 52.1767 10.7598 50.8921 9.33901C49.7995 8.1262 48.5649 7.09181 47.1877 6.23639C47.0791 6.11921 46.9496 6.03479 46.7999 5.98339C46.6287 6.00736 46.5351 6.1051 46.519 6.27634C46.5725 6.48487 46.6394 6.68887 46.7196 6.88888C48.1843 10.2408 49.8514 13.4808 51.7212 16.6095C52.6084 18.0743 53.5087 19.5303 54.4227 20.9772C55.3588 22.3266 56.2949 23.6758 57.2311 25.0252C57.4967 25.4383 57.7417 25.8644 57.9666 26.3036C57.9578 26.3124 57.9487 26.3214 57.9398 26.3302C56.4254 24.9326 54.8295 23.6409 53.1522 22.4552C52.9297 22.2648 52.7558 22.0385 52.6306 21.7761C51.7111 19.5188 50.7038 17.2996 49.6083 15.1181C48.2937 12.5769 46.6043 10.309 44.5398 8.31368C43.95 7.77625 43.3169 7.29688 42.6408 6.87556C42.2842 6.68914 41.9274 6.50271 41.5709 6.31629C41.435 6.25291 41.3147 6.27501 41.2098 6.38287C41.1579 6.44918 41.1266 6.52455 41.1162 6.60924C41.6383 8.5057 42.365 10.3212 43.296 12.0555C44.0088 13.3865 44.7757 14.6827 45.5963 15.9437C46.4094 17.0554 47.2829 18.1206 48.2174 19.1396C48.2359 19.1617 48.2313 19.1795 48.2041 19.1928C47.0307 18.5262 45.8538 17.8647 44.6735 17.2088C44.0923 16.8484 43.5394 16.4489 43.0152 16.0103C42.6774 15.6652 42.3698 15.2968 42.0924 14.9051C41.6244 14.1682 41.1697 13.4225 40.7284 12.668C40.2539 11.8533 39.6344 11.1654 38.8695 10.604C38.1099 10.0882 37.2984 9.66206 36.4355 9.3257C36.2446 9.06018 36.0485 8.79812 35.8471 8.54006C35.5045 8.30117 35.1659 8.05695 34.8307 7.80768C34.2206 7.65907 33.6097 7.5126 32.9986 7.36825C32.7437 7.42844 32.4896 7.49049 32.2363 7.55467C32.1373 6.74986 32.0036 5.9509 31.8351 5.1578Z" fill="#4DA546"></path><path opacity="0.991" fill-rule="evenodd" clip-rule="evenodd" d="M138.287 5.21106C139.294 5.21772 140.101 5.6172 140.707 6.4095C140.796 6.55145 140.886 6.69366 140.975 6.83561C143.444 11.9756 145.914 17.1155 148.384 22.2555C148.393 16.6274 148.402 10.999 148.41 5.37085C148.433 5.34875 148.455 5.32638 148.477 5.30427C149.476 5.28643 150.474 5.28643 151.473 5.30427C151.495 5.32638 151.518 5.34875 151.54 5.37085C151.558 12.1175 151.558 18.8645 151.54 25.6111C151.554 26.1201 151.389 26.5595 151.045 26.9294C150.468 27.3635 149.817 27.5499 149.092 27.4887C148.407 27.4003 147.774 27.1696 147.193 26.7962C147.005 26.6263 146.858 26.4266 146.752 26.197C144.156 20.823 141.553 15.4521 138.942 10.0847C138.933 15.7128 138.924 21.3412 138.915 26.9694C138.893 26.9915 138.871 27.0138 138.849 27.0359C137.761 27.0538 136.673 27.0538 135.585 27.0359C135.563 27.0138 135.541 26.9915 135.519 26.9694C135.492 20.5505 135.501 14.1322 135.545 7.71446C135.762 6.42734 136.506 5.62385 137.779 5.30427C137.951 5.26725 138.12 5.23609 138.287 5.21106Z" fill="#32AF14"></path><path opacity="0.992" fill-rule="evenodd" clip-rule="evenodd" d="M105.255 5.29096C106.432 5.29096 107.608 5.29096 108.785 5.29096C110.834 11.1644 112.898 17.0325 114.977 22.8947C116.739 17.0372 118.495 11.1782 120.246 5.31759C121.417 5.2867 122.589 5.28217 123.763 5.30428C123.809 5.34103 123.845 5.38524 123.87 5.43744C121.707 12.1846 119.554 18.9358 117.411 25.691C116.99 26.8024 116.178 27.3441 114.977 27.3156C114.452 27.3169 113.948 27.2146 113.466 27.0093C113.218 26.7979 113.008 26.5536 112.837 26.2769C112.681 26.0002 112.538 25.7163 112.409 25.4247C110.002 18.7611 107.59 12.0986 105.174 5.43744C105.205 5.39056 105.231 5.34156 105.255 5.29096Z" fill="#32AF14"></path><path opacity="0.989" fill-rule="evenodd" clip-rule="evenodd" d="M127.214 5.29095C128.221 5.28642 129.229 5.29095 130.236 5.30426C130.258 5.32637 130.281 5.34874 130.303 5.37084C130.321 12.5703 130.321 19.7699 130.303 26.9693C130.281 26.9915 130.258 27.0138 130.236 27.0359C129.229 27.0538 128.221 27.0538 127.214 27.0359C127.192 27.0138 127.169 26.9915 127.147 26.9693C127.129 19.7699 127.129 12.5703 127.147 5.37084C127.175 5.34767 127.197 5.32104 127.214 5.29095Z" fill="#32AF14"></path><path opacity="0.992" fill-rule="evenodd" clip-rule="evenodd" d="M169.34 5.29095C169.741 5.28642 170.142 5.29095 170.543 5.30426C170.566 5.32637 170.588 5.34874 170.61 5.37084C170.628 6.27633 170.628 7.18182 170.61 8.0873C170.579 8.11846 170.548 8.14935 170.517 8.18051C168.423 8.00128 166.408 8.31208 164.472 9.11263C163.12 9.71292 162.028 10.6227 161.195 11.8424C159.545 14.2465 159.26 16.8031 160.339 19.5124C160.668 20.2914 161.114 20.9926 161.677 21.6163C162.269 22.263 162.933 22.818 163.669 23.2808C164.575 23.7549 165.538 24.0388 166.558 24.133C167.048 24.1783 167.538 24.2095 168.029 24.2263C168.858 24.1903 169.687 24.1682 170.517 24.1597C170.548 24.1908 170.579 24.2217 170.61 24.2529C170.628 25.1584 170.628 26.0639 170.61 26.9693C170.588 26.9915 170.566 27.0138 170.543 27.0359C169.01 27.0538 167.476 27.0538 165.943 27.0359C162.058 26.7789 159.281 24.9102 157.611 21.4299C156.734 19.4056 156.386 17.2929 156.568 15.0915C156.74 12.9125 157.561 11.0216 159.029 9.4189C160.147 8.22206 161.426 7.24094 162.867 6.47607C163.689 6.07579 164.545 5.76526 165.435 5.54395C165.913 5.45873 166.395 5.39641 166.879 5.35753C167.704 5.34075 168.524 5.31838 169.34 5.29095Z" fill="#32AF14"></path><path opacity="0.992" fill-rule="evenodd" clip-rule="evenodd" d="M186.458 5.29095C186.707 5.28642 186.957 5.29095 187.206 5.30426C187.229 5.32637 187.251 5.34874 187.273 5.37084C187.291 6.28512 187.291 7.19966 187.273 8.11393C187.251 8.13604 187.229 8.15841 187.206 8.18051C185.303 8.09236 183.448 8.34989 181.643 8.95284C180.045 9.60426 178.757 10.6384 177.778 12.0555C177.317 12.7466 177.009 13.501 176.856 14.3192C180.306 14.2883 183.756 14.275 187.206 14.2792C187.229 14.3013 187.251 14.3237 187.273 14.3458C187.291 15.2513 187.291 16.1568 187.273 17.0623C187.251 17.0844 187.229 17.1067 187.206 17.1288C183.747 17.1422 180.288 17.1467 176.829 17.1422C176.838 17.6261 176.923 18.0967 177.083 18.5537C177.395 19.5223 177.868 20.4011 178.5 21.1902C179.114 21.9346 179.805 22.5959 180.573 23.1743C181.619 23.8867 182.778 24.2372 184.05 24.2263C185.102 24.1922 186.155 24.1701 187.206 24.1597C187.229 24.1818 187.251 24.2042 187.273 24.2263C187.291 25.1405 187.291 26.0551 187.273 26.9694C183.303 27.5984 179.813 26.5997 176.802 23.9733C174.707 22.1831 173.597 19.906 173.472 17.1422C173.389 15.1783 173.719 13.2875 174.462 11.4696C174.76 10.8003 175.144 10.1878 175.612 9.63195C176.443 8.68492 177.384 7.87265 178.434 7.19513C179.803 6.39724 181.274 5.87365 182.847 5.62385C184.047 5.4281 185.251 5.31705 186.458 5.29095Z" fill="#32AF14"></path><path opacity="0.991" fill-rule="evenodd" clip-rule="evenodd" d="M218.741 5.29095C219.73 5.28642 220.72 5.29095 221.71 5.30426C221.742 5.33542 221.771 5.36632 221.803 5.39748C221.811 10.3156 221.822 15.2335 221.83 20.1516C221.894 21.1471 222.172 22.0792 222.659 22.9479C223.221 23.6744 223.967 24.0872 224.893 24.1863C225.168 24.2172 225.444 24.2396 225.722 24.2529C226.738 24.1996 227.754 24.1685 228.771 24.1597C228.803 24.1908 228.832 24.2217 228.864 24.2529C228.883 25.1584 228.883 26.0639 228.864 26.9694C228.843 26.9915 228.819 27.0138 228.798 27.0359C227.265 27.061 225.73 27.0522 224.197 27.0093C222.196 26.7262 220.624 25.7632 219.476 24.1197C218.955 23.186 218.687 22.1828 218.674 21.1103C218.655 15.8638 218.655 10.6173 218.674 5.37084C218.701 5.34767 218.725 5.32104 218.741 5.29095Z" fill="#32AF14"></path><path opacity="0.991" fill-rule="evenodd" clip-rule="evenodd" d="M244.204 5.29095C244.463 5.28642 244.72 5.29095 244.979 5.30426C245.001 5.32637 245.025 5.34874 245.046 5.37084C245.065 6.27633 245.065 7.18182 245.046 8.0873C245.014 8.11846 244.985 8.14935 244.953 8.18051C243.107 8.09716 241.307 8.33684 239.55 8.89958C238.552 9.24979 237.669 9.78243 236.902 10.4975C236.156 11.1678 235.554 11.9447 235.096 12.8278C234.877 13.3034 234.714 13.7961 234.602 14.3059C238.06 14.2883 241.521 14.2792 244.979 14.2792C245.001 14.3013 245.025 14.3237 245.046 14.3458C245.065 15.2425 245.065 16.1389 245.046 17.0356C245.014 17.0668 244.985 17.0977 244.953 17.1288C241.502 17.1422 238.052 17.1467 234.602 17.1422C234.596 17.5222 234.644 17.895 234.749 18.2607C235.027 19.2671 235.482 20.1814 236.113 21.0038C236.741 21.8171 237.469 22.5317 238.293 23.1477C239.349 23.8755 240.521 24.235 241.81 24.2263C242.858 24.1927 243.904 24.1706 244.953 24.1597C244.985 24.1908 245.014 24.2217 245.046 24.2529C245.065 25.1584 245.065 26.0639 245.046 26.9694C241.12 27.5979 237.656 26.6258 234.655 24.0532C232.435 22.1836 231.29 19.7912 231.218 16.8758C231.189 15.185 231.456 13.5426 232.021 11.9489C232.427 10.8613 233.042 9.91132 233.866 9.09932C234.687 8.26281 235.602 7.54827 236.608 6.95544C237.865 6.30429 239.194 5.86034 240.593 5.62385C241.224 5.53889 241.858 5.459 242.492 5.38416C243.067 5.34581 243.637 5.31465 244.204 5.29095Z" fill="#32AF14"></path><path opacity="0.998" fill-rule="evenodd" clip-rule="evenodd" d="M32.9852 11.363C34.3659 13.7221 35.8415 16.0212 37.4118 18.2607C38.4418 19.6906 39.4849 21.1109 40.5411 22.5218C42.8542 25.4908 45.1368 28.4823 47.3883 31.4968C48.8187 33.4569 50.156 35.4809 51.4003 37.5689C52.5833 39.5873 53.5641 41.7003 54.3424 43.9073C55.8143 48.1918 56.0462 52.5416 55.0378 56.9569C53.7024 62.164 50.7201 66.1279 46.0911 68.8481C41.9745 71.1257 37.5701 72.0221 32.8782 71.5379C28.8202 71.1038 25.2362 69.5946 22.1261 67.0105C19.1922 64.4149 17.2263 61.2146 16.2284 57.4097C15.5675 54.9899 15.3356 52.5307 15.533 50.0326C15.7513 48.2531 16.2151 46.5396 16.9238 44.8927C17.5505 43.4583 18.2548 42.0646 19.0368 40.7114C20.6729 38.0208 22.3759 35.3755 24.1454 32.7751C26.4767 29.252 28.4468 25.5235 30.0564 21.5897C31.3903 18.2833 32.3666 14.8745 32.9852 11.363ZM42.507 29.3929C44.5103 31.9341 46.396 34.5619 48.1639 37.2759C49.3325 39.1058 50.3489 41.0233 51.2131 43.0284C52.3931 45.7747 53.004 48.6422 53.0452 51.6305C53.0639 54.5696 52.4263 57.3572 51.1328 59.993C49.371 63.3007 46.7811 65.7375 43.3629 67.3034C38.9874 69.2556 34.494 69.5751 29.8826 68.2622C26.1784 67.146 23.2318 65.0112 21.0428 61.8572C20.9246 61.6734 20.8131 61.487 20.7085 61.2979C22.8498 64.0264 25.5959 65.8949 28.9465 66.904C31.9835 67.7876 35.0506 67.9029 38.1473 67.2502C41.8049 66.4624 44.8227 64.6469 47.2011 61.8039C48.8816 59.646 49.9691 57.2137 50.4642 54.5068C51.0047 51.6052 50.9245 48.7202 50.2234 45.8514C49.6885 43.7038 48.9575 41.6265 48.0302 39.6195C46.9989 37.4235 45.8843 35.2753 44.6869 33.1746C43.9535 31.9165 43.2268 30.656 42.507 29.3929Z" fill="#FCCE09"></path><path opacity="0.978" fill-rule="evenodd" clip-rule="evenodd" d="M41.7314 17.4884C41.7795 17.4708 41.833 17.4618 41.8919 17.4618C42.4618 17.4993 43.0323 17.5214 43.6037 17.5283C43.8016 17.5584 43.9888 17.6208 44.1653 17.7148C44.9589 18.274 45.7522 18.8333 46.5458 19.3926C47.6483 20.1223 48.7537 20.8456 49.8624 21.5631C49.2531 21.5913 48.6556 21.5157 48.0703 21.3367C46.587 20.9034 45.1068 20.4597 43.6304 20.0051C42.9871 19.1715 42.354 18.3326 41.7314 17.4884Z" fill="#4DA546"></path><path opacity="0.984" fill-rule="evenodd" clip-rule="evenodd" d="M52.2428 23.5072C52.4669 23.4766 52.6721 23.5253 52.858 23.6537C54.9656 25.3256 56.9938 27.0967 58.9428 28.9668C59.0383 29.0861 59.1052 29.2192 59.1434 29.3662C58.5542 29.2485 57.9746 29.093 57.4049 28.9002C56.656 28.5984 55.9071 28.2964 55.1582 27.9947C54.1151 27.5952 53.054 27.249 51.9753 26.9561C50.7295 26.6282 49.4812 26.3086 48.2308 25.9973C47.7673 25.3936 47.3035 24.7901 46.84 24.1863C47.6245 24.1775 48.4092 24.1685 49.1937 24.1597C50.2555 24.1339 51.2719 23.9163 52.2428 23.5072Z" fill="#4DA546"></path><path opacity="0.682" fill-rule="evenodd" clip-rule="evenodd" d="M42.4 29.2331C42.3578 29.2197 42.3444 29.1931 42.3599 29.1532C42.3877 29.1729 42.4011 29.1995 42.4 29.2331Z" fill="#91B531"></path><path opacity="0.765" fill-rule="evenodd" clip-rule="evenodd" d="M42.4 29.2331C42.4267 29.2419 42.4446 29.2597 42.4534 29.2864C42.4179 29.2864 42.4 29.2685 42.4 29.2331Z" fill="#66AA3E"></path><path opacity="0.985" fill-rule="evenodd" clip-rule="evenodd" d="M51.5474 30.538C52.4651 30.673 53.3924 30.7929 54.329 30.8976C56.3393 31.1165 58.3499 31.121 60.3604 30.9109C60.7595 30.9319 61.0804 31.1008 61.3233 31.4169C62.2396 32.382 63.0955 33.394 63.891 34.4529C64.309 34.8689 64.6656 35.3307 64.9608 35.8378C65.0261 35.9768 65.0841 36.1187 65.1347 36.2639C64.2317 36.025 63.3312 35.7544 62.4333 35.4516C60.3767 34.6985 58.3172 33.9528 56.2548 33.2145C55.0282 32.8044 53.8021 32.4004 52.5771 32.0028C52.2479 31.5024 51.9047 31.0142 51.5474 30.538Z" fill="#4DA546"></path><path opacity="0.982" fill-rule="evenodd" clip-rule="evenodd" d="M134.623 32.642C135.461 32.5695 136.272 32.6803 137.056 32.9749C138.36 33.56 138.976 34.5674 138.902 35.9976C138.429 36.0021 137.957 35.9976 137.484 35.9843C137.418 35.8961 137.347 35.8117 137.27 35.7313C137.299 34.9829 136.97 34.4545 136.281 34.1467C135.571 33.8913 134.858 33.8825 134.141 34.12C133.519 34.3845 133.158 34.8505 133.058 35.5182C133.03 35.8231 133.048 36.1249 133.111 36.4237C133.186 36.6842 133.333 36.8927 133.553 37.0495C133.782 37.1947 134.022 37.3188 134.275 37.4224C135.044 37.6746 135.81 37.9321 136.575 38.1947C137.204 38.3969 137.783 38.6898 138.314 39.0736C139.022 39.689 139.339 40.4656 139.263 41.4039C139.148 42.7296 138.475 43.6484 137.244 44.1603C135.852 44.6703 134.461 44.6703 133.071 44.1603C132.009 43.6934 131.372 42.8899 131.159 41.7501C131.123 41.4049 131.11 41.0587 131.119 40.7114C131.591 40.7069 132.064 40.7114 132.536 40.7248C132.603 40.7913 132.67 40.8579 132.737 40.9245C132.721 41.463 132.854 41.9602 133.138 42.4159C133.526 42.8907 134.03 43.1528 134.649 43.2015C135.385 43.2897 136.08 43.1653 136.736 42.8287C137.428 42.3679 137.709 41.7245 137.578 40.8979C137.468 40.4158 137.196 40.0563 136.762 39.8193C136.596 39.7322 136.427 39.6523 136.254 39.5796C135.487 39.3311 134.721 39.0824 133.954 38.8339C133.34 38.6216 132.778 38.3199 132.269 37.9284C131.663 37.3806 131.369 36.6969 131.386 35.8777C131.45 34.2513 132.27 33.2217 133.847 32.7884C134.107 32.7282 134.365 32.6792 134.623 32.642Z" fill="#535453"></path><path opacity="0.982" fill-rule="evenodd" clip-rule="evenodd" d="M168.056 32.642C168.894 32.5695 169.705 32.6803 170.49 32.9749C171.794 33.56 172.409 34.5674 172.335 35.9976C171.863 36.0021 171.39 35.9976 170.918 35.9843C170.851 35.8961 170.78 35.8117 170.704 35.7313C170.733 34.9829 170.403 34.4545 169.714 34.1467C169.004 33.8913 168.291 33.8825 167.574 34.12C166.953 34.3845 166.592 34.8505 166.491 35.5182C166.463 35.8231 166.481 36.1249 166.545 36.4237C166.619 36.6842 166.766 36.8927 166.986 37.0495C167.215 37.1947 167.456 37.3188 167.708 37.4224C168.477 37.6746 169.244 37.9321 170.008 38.1947C170.637 38.3969 171.217 38.6898 171.747 39.0736C172.455 39.689 172.772 40.4656 172.696 41.4039C172.581 42.7296 171.908 43.6484 170.677 44.1603C169.285 44.6703 167.894 44.6703 166.505 44.1603C165.443 43.6934 164.805 42.8899 164.592 41.7501C164.557 41.4049 164.543 41.0587 164.552 40.7114C165.025 40.7069 165.497 40.7114 165.97 40.7248C166.037 40.7913 166.103 40.8579 166.17 40.9245C166.154 41.463 166.288 41.9602 166.571 42.4159C166.959 42.8907 167.463 43.1528 168.083 43.2015C168.818 43.2897 169.513 43.1653 170.169 42.8287C170.861 42.3679 171.142 41.7245 171.011 40.8979C170.902 40.4158 170.63 40.0563 170.196 39.8193C170.03 39.7322 169.86 39.6523 169.687 39.5796C168.921 39.3311 168.154 39.0824 167.387 38.8339C166.773 38.6216 166.212 38.3199 165.702 37.9284C165.097 37.3806 164.802 36.6969 164.82 35.8777C164.884 34.2513 165.704 33.2217 167.28 32.7884C167.54 32.7282 167.799 32.6792 168.056 32.642Z" fill="#535453"></path><path opacity="0.982" fill-rule="evenodd" clip-rule="evenodd" d="M177.685 32.642C178.523 32.5695 179.334 32.6803 180.119 32.9749C181.423 33.56 182.038 34.5674 181.964 35.9976C181.492 36.0021 181.019 35.9976 180.547 35.9843C180.48 35.8961 180.409 35.8117 180.333 35.7313C180.361 34.9829 180.032 34.4545 179.343 34.1467C178.633 33.8913 177.92 33.8825 177.203 34.12C176.581 34.3845 176.22 34.8505 176.12 35.5182C176.092 35.8231 176.11 36.1249 176.173 36.4237C176.248 36.6842 176.395 36.8927 176.615 37.0495C176.844 37.1947 177.084 37.3188 177.337 37.4224C178.106 37.6746 178.872 37.9321 179.637 38.1947C180.266 38.3969 180.845 38.6898 181.376 39.0736C182.084 39.689 182.401 40.4656 182.325 41.4039C182.21 42.7296 181.537 43.6484 180.306 44.1603C178.914 44.6703 177.523 44.6703 176.133 44.1603C175.072 43.6934 174.434 42.8899 174.221 41.7501C174.185 41.4049 174.172 41.0587 174.181 40.7114C174.653 40.7069 175.126 40.7114 175.598 40.7248C175.665 40.7913 175.732 40.8579 175.799 40.9245C175.783 41.463 175.916 41.9602 176.2 42.4159C176.588 42.8907 177.092 43.1528 177.711 43.2015C178.447 43.2897 179.142 43.1653 179.798 42.8287C180.49 42.3679 180.771 41.7245 180.64 40.8979C180.531 40.4158 180.258 40.0563 179.824 39.8193C179.658 39.7322 179.489 39.6523 179.316 39.5796C178.549 39.3311 177.783 39.0824 177.016 38.8339C176.402 38.6216 175.84 38.3199 175.331 37.9284C174.725 37.3806 174.431 36.6969 174.448 35.8777C174.513 34.2513 175.333 33.2217 176.909 32.7884C177.169 32.7282 177.428 32.6792 177.685 32.642Z" fill="#535453"></path><path opacity="0.989" fill-rule="evenodd" clip-rule="evenodd" d="M111.46 32.8816C112.539 32.8771 113.618 32.8816 114.696 32.895C115.453 32.8761 116.184 33.0002 116.89 33.2678C118.096 33.8907 118.618 34.8804 118.454 36.2373C118.336 37.1433 117.877 37.8133 117.077 38.248C118.157 38.6666 118.75 39.4523 118.855 40.6049C118.99 42.3227 118.236 43.4367 116.595 43.9472C115.735 44.1624 114.862 44.2689 113.974 44.2668C113.136 44.2846 112.298 44.2846 111.46 44.2668C111.393 44.2002 111.326 44.1336 111.259 44.0671C111.241 40.4097 111.241 36.7521 111.259 33.0947C111.332 33.0271 111.398 32.9562 111.46 32.8816ZM112.878 34.2132C113.6 34.2031 114.322 34.2164 115.044 34.2532C115.559 34.2761 116.022 34.4359 116.435 34.7326C116.715 35.0399 116.849 35.404 116.836 35.8245C116.834 36.8147 116.344 37.3918 115.365 37.5556C115.161 37.592 114.956 37.6187 114.75 37.6354C114.126 37.6682 113.502 37.6815 112.878 37.6754C112.878 36.5214 112.878 35.3672 112.878 34.2132ZM112.878 38.9804C113.627 38.9705 114.376 38.9838 115.124 39.0203C116.77 39.0885 117.443 39.9274 117.144 41.537C117.03 42.0846 116.714 42.4617 116.194 42.6689C115.789 42.8223 115.37 42.911 114.937 42.9352C114.251 42.9677 113.564 42.981 112.878 42.9752C112.878 41.6436 112.878 40.312 112.878 38.9804Z" fill="#535453"></path><path opacity="0.984" fill-rule="evenodd" clip-rule="evenodd" d="M121.276 32.8816C121.686 32.8771 122.096 32.8816 122.506 32.895C122.573 32.9615 122.64 33.0281 122.707 33.0947C122.716 35.8823 122.725 38.6696 122.734 41.4571C122.778 42.5573 123.353 43.1387 124.459 43.2015C124.807 43.2194 125.154 43.2194 125.502 43.2015C126.711 43.1064 127.331 42.454 127.361 41.2441C127.37 38.5276 127.379 35.8112 127.388 33.0947C127.454 33.0281 127.521 32.9615 127.588 32.895C127.989 32.8771 128.391 32.8771 128.792 32.895C128.867 32.9703 128.943 33.046 129.019 33.1213C129.037 35.7491 129.037 38.3766 129.019 41.0044C129.018 41.7096 128.858 42.3754 128.538 43.0018C128.145 43.6394 127.588 44.07 126.866 44.2934C125.577 44.6415 124.293 44.6237 123.014 44.2402C121.788 43.7475 121.141 42.8375 121.075 41.5104C121.057 38.7053 121.057 35.8998 121.075 33.0947C121.148 33.0271 121.214 32.9562 121.276 32.8816Z" fill="#535453"></path><path opacity="0.985" fill-rule="evenodd" clip-rule="evenodd" d="M141.657 32.8816C142.067 32.8771 142.477 32.8816 142.887 32.895C142.954 32.9615 143.021 33.0281 143.088 33.0947C143.106 36.7521 143.106 40.4097 143.088 44.0671C143.021 44.1336 142.954 44.2002 142.887 44.2668C142.477 44.2846 142.067 44.2846 141.657 44.2668C141.59 44.2002 141.523 44.1336 141.456 44.0671C141.438 40.4097 141.438 36.7521 141.456 33.0947C141.529 33.0271 141.595 32.9562 141.657 32.8816Z" fill="#535453"></path><path opacity="0.987" fill-rule="evenodd" clip-rule="evenodd" d="M145.99 32.8816C146.534 32.8729 147.078 32.8816 147.621 32.9083C149.186 35.8112 150.751 38.714 152.315 41.6169C152.324 38.7761 152.333 35.9355 152.342 33.0947C152.409 33.0281 152.476 32.9615 152.543 32.895C152.944 32.8771 153.345 32.8771 153.746 32.895C153.813 32.9615 153.88 33.0281 153.947 33.0947C153.965 36.7521 153.965 40.4097 153.947 44.0671C153.88 44.1336 153.813 44.2002 153.746 44.2668C153.211 44.2889 152.676 44.2846 152.142 44.2535C150.561 41.3637 148.988 38.4698 147.421 35.5715C147.412 38.4032 147.403 41.2353 147.394 44.0671C147.327 44.1336 147.26 44.2002 147.193 44.2668C146.783 44.2846 146.373 44.2846 145.963 44.2668C145.896 44.2002 145.829 44.1336 145.763 44.0671C145.745 40.4185 145.745 36.7699 145.763 33.1213C145.844 33.0449 145.92 32.965 145.99 32.8816Z" fill="#535453"></path><path opacity="0.981" fill-rule="evenodd" clip-rule="evenodd" d="M156.635 32.8816C158.721 32.8771 160.808 32.8816 162.894 32.895C162.961 32.9615 163.028 33.0281 163.094 33.0947C163.112 33.3964 163.112 33.6984 163.094 34.0002C163.028 34.0668 162.961 34.1333 162.894 34.1999C161.289 34.2132 159.684 34.2178 158.079 34.2132C158.079 35.3672 158.079 36.5214 158.079 37.6754C159.533 37.6709 160.986 37.6754 162.439 37.6887C162.64 37.852 162.711 38.065 162.653 38.3279C162.711 38.5907 162.64 38.8038 162.439 38.967C160.986 38.9804 159.533 38.9849 158.079 38.9804C158.079 40.312 158.079 41.6436 158.079 42.9752C159.72 42.9706 161.36 42.9752 163.001 42.9885C163.059 43.0463 163.117 43.1038 163.175 43.1616C163.193 43.4633 163.193 43.7653 163.175 44.0671C163.108 44.1336 163.041 44.2002 162.974 44.2668C160.861 44.2846 158.748 44.2846 156.635 44.2668C156.568 44.2002 156.501 44.1336 156.434 44.0671C156.417 40.4097 156.417 36.7521 156.434 33.0947C156.507 33.0271 156.574 32.9562 156.635 32.8816Z" fill="#535453"></path><path opacity="0.989" fill-rule="evenodd" clip-rule="evenodd" d="M65.215 37.1428C65.614 37.0607 65.9483 37.1673 66.218 37.4623C67.6414 39.2528 68.9611 41.117 70.1765 43.0551C70.2982 43.283 70.2313 43.4074 69.9759 43.4279C69.2056 43.3323 68.4478 43.1768 67.7024 42.9618C65.2773 42.083 62.8524 41.2041 60.4273 40.3253C59.2157 39.9114 57.9942 39.5295 56.763 39.1801C56.4519 38.5654 56.1534 37.9484 55.867 37.3292C57.4993 37.453 59.1352 37.493 60.775 37.449C62.2613 37.3785 63.7412 37.2765 65.215 37.1428Z" fill="#4DA546"></path><path opacity="0.983" fill-rule="evenodd" clip-rule="evenodd" d="M58.555 44.2002C60.4227 44.4149 62.295 44.5792 64.1718 44.6929C66.3881 44.7526 68.6037 44.7305 70.8184 44.6263C71.0775 44.6117 71.2915 44.7004 71.4603 44.8927C72.1613 45.9377 72.8522 46.9897 73.5332 48.0485C73.1619 48.0757 72.7963 48.04 72.4365 47.942C69.6897 47.2451 66.9259 46.6235 64.1451 46.0778C62.3817 45.7662 60.6076 45.5398 58.8225 45.3987C58.7291 45 58.6401 44.6005 58.555 44.2002Z" fill="#4DA546"></path><path opacity="0.984" fill-rule="evenodd" clip-rule="evenodd" d="M73.6937 49.1271C74.0582 49.0688 74.3479 49.1841 74.5629 49.4734C75.0511 50.259 75.5325 51.0492 76.0072 51.8436C76.0789 52.0729 75.9987 52.2061 75.7665 52.2431C73.3032 51.8646 70.8379 51.4963 68.3711 51.1379C65.4752 50.7112 62.5689 50.6092 59.6517 50.8316C59.6404 50.3322 59.6046 49.835 59.5447 49.3402C59.6383 49.3314 59.7319 49.3224 59.8255 49.3136C62.2544 49.3969 64.6838 49.4369 67.114 49.4334C69.3152 49.4124 71.5085 49.3104 73.6937 49.1271Z" fill="#4DA546"></path><path opacity="0.982" fill-rule="evenodd" clip-rule="evenodd" d="M115.204 49.1538C116.159 49.1032 117.051 49.312 117.879 49.7796C118.927 50.521 119.448 51.5376 119.444 52.829C119.377 52.8956 119.31 52.9621 119.243 53.0287C118.762 53.042 118.28 53.0466 117.799 53.042C117.693 51.0321 116.65 50.2111 114.67 50.5786C113.944 50.8286 113.467 51.3213 113.239 52.0566C113.035 52.7065 112.928 53.3723 112.918 54.054C112.889 54.9872 112.907 55.9193 112.971 56.8504C113.021 57.5007 113.199 58.1133 113.506 58.688C113.905 59.3333 114.49 59.684 115.258 59.74C116.509 59.8521 117.324 59.3152 117.705 58.1287C117.841 57.6408 117.908 57.1436 117.906 56.6373C118.459 56.6373 119.011 56.6373 119.564 56.6373C119.648 58.0342 119.185 59.2105 118.173 60.1661C117.217 60.8857 116.139 61.1786 114.937 61.0449C113.353 60.9254 112.279 60.1307 111.714 58.6614C111.462 57.9186 111.319 57.1551 111.286 56.371C111.235 55.501 111.235 54.6309 111.286 53.7611C111.325 52.9217 111.503 52.1139 111.821 51.3376C112.337 50.1756 113.224 49.4789 114.482 49.247C114.726 49.2089 114.967 49.1777 115.204 49.1538Z" fill="#535453"></path><path opacity="0.985" fill-rule="evenodd" clip-rule="evenodd" d="M125.796 49.1538C128.358 49.0821 129.825 50.3072 130.196 52.829C130.364 54.265 130.382 55.7031 130.249 57.1434C129.929 59.9602 128.346 61.2607 125.502 61.0449C123.962 60.9246 122.897 60.1568 122.306 58.7413C122.048 58.0174 121.896 57.2717 121.851 56.5042C121.783 55.375 121.801 54.2477 121.904 53.1219C121.991 52.3603 122.214 51.6412 122.573 50.9648C123.062 50.1408 123.771 49.5948 124.7 49.3269C125.064 49.2361 125.429 49.1786 125.796 49.1538ZM125.983 50.4588C127.228 50.4907 128.026 51.1032 128.377 52.2964C128.527 52.8098 128.616 53.3334 128.645 53.8676C128.717 55.0067 128.691 56.1431 128.564 57.2765C128.261 59.3205 127.106 60.0883 125.101 59.5802C124.505 59.3245 124.091 58.8939 123.857 58.2885C123.629 57.6518 123.504 56.995 123.483 56.3178C123.459 55.4208 123.468 54.5241 123.509 53.628C123.553 53.0623 123.669 52.5121 123.857 51.9768C124.236 51.0087 124.945 50.5027 125.983 50.4588Z" fill="#535453"></path><path opacity="0.982" fill-rule="evenodd" clip-rule="evenodd" d="M146.578 49.1538C147.454 49.1106 148.283 49.2837 149.066 49.6731C150.146 50.3189 150.645 51.2734 150.564 52.536C150.1 52.5405 149.636 52.536 149.173 52.5227C149.088 52.4423 149.007 52.3581 148.932 52.2697C148.96 51.4247 148.567 50.8699 147.755 50.6052C147.092 50.4127 146.432 50.4305 145.776 50.6585C145.17 50.9333 144.818 51.3994 144.719 52.0566C144.645 52.5144 144.725 52.9406 144.96 53.335C145.239 53.6295 145.573 53.8381 145.963 53.9608C146.805 54.2343 147.643 54.5182 148.477 54.8131C149.075 55.0261 149.619 55.3278 150.109 55.7185C150.79 56.4219 151.053 57.2608 150.898 58.2353C150.709 59.3799 150.08 60.1834 149.012 60.6454C148.029 61.0292 147.013 61.1536 145.963 61.0183C144.976 60.9195 144.151 60.5067 143.489 59.7799C142.924 59.0321 142.688 58.1889 142.78 57.2499C143.253 57.2453 143.726 57.2499 144.198 57.2632C144.265 57.3298 144.332 57.3964 144.398 57.4629C144.39 58.8129 145.055 59.5719 146.391 59.74C147.185 59.8252 147.916 59.6566 148.584 59.234C149.232 58.6635 149.424 57.9668 149.159 57.1433C148.987 56.7676 148.715 56.4879 148.344 56.3044C148.23 56.2461 148.114 56.1929 147.996 56.1446C147.187 55.873 146.375 55.6067 145.562 55.3457C144.86 55.1095 144.24 54.7409 143.703 54.2405C143.126 53.5313 142.921 52.7235 143.088 51.817C143.311 50.7021 143.948 49.9256 145 49.4867C145.512 49.2915 146.038 49.1807 146.578 49.1538Z" fill="#535453"></path><path opacity="0.982" fill-rule="evenodd" clip-rule="evenodd" d="M202.532 49.1538C203.487 49.1032 204.379 49.312 205.207 49.7796C206.255 50.521 206.776 51.5376 206.772 52.829C206.705 52.8956 206.638 52.9621 206.571 53.0287C206.09 53.042 205.608 53.0466 205.127 53.042C205.021 51.0321 203.978 50.2111 201.997 50.5786C201.272 50.8286 200.795 51.3213 200.566 52.0566C200.362 52.7065 200.255 53.3723 200.246 54.054C200.217 54.9872 200.235 55.9193 200.299 56.8504C200.348 57.5007 200.527 58.1133 200.834 58.688C201.233 59.3333 201.817 59.684 202.586 59.74C203.837 59.8521 204.652 59.3152 205.033 58.1287C205.169 57.6408 205.236 57.1436 205.234 56.6373C205.787 56.6373 206.339 56.6373 206.892 56.6373C206.976 58.0342 206.513 59.2105 205.501 60.1661C204.545 60.8857 203.467 61.1786 202.265 61.0449C200.681 60.9254 199.607 60.1307 199.042 58.6614C198.79 57.9186 198.647 57.1551 198.614 56.371C198.563 55.501 198.563 54.6309 198.614 53.7611C198.652 52.9217 198.831 52.1139 199.149 51.3376C199.665 50.1756 200.552 49.4789 201.81 49.247C202.054 49.2089 202.295 49.1777 202.532 49.1538Z" fill="#535453"></path><path opacity="0.988" fill-rule="evenodd" clip-rule="evenodd" d="M132.804 49.4201C133.363 49.4113 133.92 49.4204 134.475 49.4467C136.029 52.3539 137.589 55.2568 139.156 58.1554C139.165 55.3058 139.174 52.4561 139.183 49.6065C139.241 49.5487 139.299 49.4912 139.357 49.4334C139.776 49.4156 140.195 49.4156 140.614 49.4334C140.672 49.4912 140.73 49.5487 140.788 49.6065C140.806 53.2729 140.806 56.9391 140.788 60.6055C140.73 60.6633 140.672 60.7208 140.614 60.7786C140.064 60.8007 139.515 60.7962 138.969 60.7653C137.407 57.876 135.837 54.9907 134.261 52.1099C134.253 54.9417 134.244 57.7737 134.235 60.6055C134.177 60.6633 134.119 60.7208 134.061 60.7786C133.642 60.7965 133.223 60.7965 132.804 60.7786C132.737 60.712 132.67 60.6455 132.603 60.5789C132.585 56.9303 132.585 53.2817 132.603 49.6331C132.675 49.5655 132.742 49.4947 132.804 49.4201Z" fill="#535453"></path><path opacity="0.984" fill-rule="evenodd" clip-rule="evenodd" d="M153.211 49.4201C153.622 49.4156 154.032 49.4201 154.442 49.4334C154.509 49.5 154.576 49.5666 154.642 49.6332C154.651 52.4117 154.66 55.1904 154.669 57.969C154.675 59.0129 155.196 59.5943 156.234 59.7133C156.689 59.7666 157.143 59.7666 157.598 59.7133C158.735 59.557 159.301 58.9045 159.296 57.7559C159.305 55.0482 159.314 52.3408 159.323 49.6332C159.39 49.5666 159.457 49.5 159.524 49.4334C159.934 49.4156 160.344 49.4156 160.754 49.4334C160.821 49.5 160.888 49.5666 160.955 49.6332C160.973 52.2609 160.973 54.8884 160.955 57.5162C160.956 58.2648 160.778 58.9661 160.42 59.6201C160.025 60.2257 159.477 60.6297 158.775 60.8319C157.977 61.0452 157.165 61.116 156.341 61.0449C155.493 61.0151 154.726 60.7578 154.041 60.2726C153.384 59.679 153.041 58.9376 153.011 58.0488C152.993 55.2437 152.993 52.4383 153.011 49.6332C153.083 49.5655 153.15 49.4947 153.211 49.4201Z" fill="#535453"></path><path opacity="0.983" fill-rule="evenodd" clip-rule="evenodd" d="M163.883 49.4201C164.294 49.4156 164.704 49.4201 165.114 49.4334C165.181 49.5 165.247 49.5666 165.314 49.6332C165.328 52.9177 165.332 56.2025 165.328 59.487C166.95 59.4824 168.573 59.487 170.196 59.5003C170.262 59.5669 170.329 59.6334 170.396 59.7C170.414 59.993 170.414 60.2859 170.396 60.5789C170.329 60.6455 170.262 60.712 170.196 60.7786C168.083 60.7965 165.97 60.7965 163.857 60.7786C163.799 60.7208 163.741 60.6633 163.683 60.6055C163.665 56.9481 163.665 53.2905 163.683 49.6332C163.755 49.5655 163.822 49.4947 163.883 49.4201Z" fill="#535453"></path><path opacity="0.985" fill-rule="evenodd" clip-rule="evenodd" d="M170.142 49.4201C172.621 49.4156 175.099 49.4201 177.578 49.4334C177.645 49.5 177.711 49.5666 177.778 49.6332C177.796 49.9349 177.796 50.2369 177.778 50.5386C177.72 50.5964 177.663 50.654 177.604 50.7117C176.633 50.7251 175.661 50.7296 174.689 50.7251C174.694 54.0186 174.689 57.3119 174.676 60.6055C174.618 60.6633 174.56 60.7208 174.502 60.7786C174.074 60.7965 173.646 60.7965 173.218 60.7786C173.16 60.7208 173.102 60.6633 173.044 60.6055C173.031 57.3119 173.026 54.0186 173.031 50.7251C172.059 50.7296 171.087 50.7251 170.115 50.7117C170.057 50.654 170 50.5964 169.942 50.5386C169.924 50.2369 169.924 49.9349 169.942 49.6332C170.014 49.5655 170.081 49.4947 170.142 49.4201Z" fill="#535453"></path><path opacity="0.985" fill-rule="evenodd" clip-rule="evenodd" d="M181.108 49.4201C181.685 49.4113 182.26 49.4204 182.833 49.4467C184.074 53.1249 185.309 56.8043 186.538 60.4857C186.498 60.5965 186.436 60.6942 186.351 60.7786C185.878 60.8007 185.405 60.7965 184.933 60.7653C184.579 59.6587 184.222 58.5535 183.863 57.4496C182.588 57.4363 181.313 57.4318 180.038 57.4363C179.678 58.5474 179.313 59.6569 178.942 60.7653C178.487 60.7965 178.033 60.8007 177.578 60.7786C177.502 60.6897 177.439 60.5919 177.39 60.4857C178.633 56.7974 179.872 53.1089 181.108 49.4201ZM181.937 51.5773C181.954 51.5802 181.967 51.589 181.977 51.6039C182.467 53.111 182.962 54.6157 183.462 56.118C182.463 56.1313 181.465 56.1359 180.466 56.1313C180.962 54.6149 181.452 53.0969 181.937 51.5773Z" fill="#535453"></path><path opacity="0.988" fill-rule="evenodd" clip-rule="evenodd" d="M188.196 49.4201C188.755 49.4113 189.313 49.4204 189.868 49.4467C191.421 52.3539 192.981 55.2568 194.548 58.1554C194.557 55.3058 194.566 52.4561 194.575 49.6065C194.633 49.5487 194.691 49.4912 194.749 49.4334C195.168 49.4156 195.587 49.4156 196.006 49.4334C196.064 49.4912 196.122 49.5487 196.18 49.6065C196.198 53.2729 196.198 56.9391 196.18 60.6055C196.122 60.6633 196.064 60.7208 196.006 60.7786C195.456 60.8007 194.908 60.7962 194.361 60.7653C192.799 57.876 191.23 54.9907 189.654 52.1099C189.645 54.9417 189.636 57.7737 189.627 60.6055C189.569 60.6633 189.511 60.7208 189.453 60.7786C189.034 60.7965 188.615 60.7965 188.196 60.7786C188.129 60.712 188.062 60.6455 187.996 60.5789C187.978 56.9303 187.978 53.2817 187.996 49.6331C188.068 49.5655 188.135 49.4947 188.196 49.4201Z" fill="#535453"></path><path opacity="0.983" fill-rule="evenodd" clip-rule="evenodd" d="M208.631 49.4201C209.13 49.4113 209.63 49.4201 210.128 49.4467C211.035 51.0843 211.95 52.7179 212.87 54.347C213.827 52.7179 214.777 51.0846 215.718 49.4467C216.192 49.4156 216.663 49.4113 217.136 49.4334C217.195 49.5466 217.256 49.6574 217.323 49.7663C216.12 51.8471 214.913 53.9244 213.699 55.9982C213.691 57.5341 213.68 59.0697 213.672 60.6055C213.613 60.6633 213.557 60.7208 213.498 60.7786C213.079 60.7965 212.661 60.7965 212.241 60.7786C212.174 60.712 212.108 60.6455 212.041 60.5789C212.033 59.0342 212.022 57.4896 212.014 55.9449C210.818 53.8889 209.628 51.8292 208.443 49.7663C208.513 49.6537 208.576 49.5383 208.631 49.4201Z" fill="#535453"></path><path opacity="0.985" fill-rule="evenodd" clip-rule="evenodd" d="M74.8438 52.9888C75.3699 52.9843 75.896 52.9888 76.4218 53.0021C76.6179 53.0354 76.765 53.1374 76.8631 53.3084C77.2822 54.0895 77.7011 54.8709 78.1202 55.652C78.209 55.8656 78.1421 55.9987 77.9196 56.0515C74.7477 55.4839 71.5558 55.3374 68.3443 55.612C65.1082 55.8941 61.961 56.5423 58.9027 57.5562C59.1309 56.6917 59.309 55.8171 59.4377 54.9329C61.2883 54.7614 63.1338 54.5438 64.9742 54.2804C67.087 53.9584 69.1999 53.6389 71.3132 53.3217C72.49 53.1664 73.6669 53.0554 74.8438 52.9888Z" fill="#4DA546"></path><path opacity="0.996" fill-rule="evenodd" clip-rule="evenodd" d="M78.4278 56.9303C78.6592 56.9279 78.833 57.0257 78.9494 57.2233C79.5215 58.4073 80.1011 59.5879 80.6879 60.7653C80.7914 61.0439 80.6978 61.1725 80.4071 61.1515C78.86 60.7717 77.2908 60.5408 75.6996 60.459C71.1907 60.372 66.9201 61.3307 62.888 63.3353C62.5299 63.567 62.1912 63.8243 61.8716 64.1076C61.7398 64.2062 61.6595 64.3348 61.6309 64.4938C61.6598 64.6778 61.7668 64.7889 61.9519 64.8267C64.461 65.4674 67.0019 65.6448 69.5747 65.3593C71.5106 65.1082 73.4005 64.6645 75.2449 64.0277C77.0581 63.3827 78.8769 62.7523 80.7013 62.1369C81.1134 62.0024 81.3854 62.1401 81.517 62.5497C81.8396 63.3073 82.1694 64.0618 82.5067 64.8134C82.5837 64.9942 82.6415 65.1806 82.6805 65.3726C82.6677 65.4379 82.6409 65.4957 82.6003 65.5457C82.4724 65.5985 82.3387 65.6251 82.1991 65.6256C78.5511 65.5394 75.1275 66.3649 71.9284 68.1024C70.6745 68.8819 69.4532 69.7075 68.2641 70.5792C68.1384 70.698 68.1293 70.8223 68.2373 70.952C68.6201 71.1648 69.0301 71.298 69.4677 71.3515C71.0949 71.5875 72.6997 71.4809 74.2821 71.0319C76.0407 70.5195 77.7078 69.8005 79.2837 68.8747C80.3573 68.2404 81.4093 67.5746 82.4398 66.8773C82.5778 66.7175 82.7471 66.6065 82.948 66.5444C83.1045 66.5892 83.2157 66.6867 83.2823 66.8374C83.407 67.0278 83.4827 67.2366 83.5097 67.4632C83.4982 67.6281 83.4358 67.77 83.3224 67.8894C82.3828 68.5852 81.5582 69.3975 80.8484 70.3262C79.606 72.0178 78.554 73.8288 77.6923 75.7591C77.523 76.1889 77.367 76.6241 77.2242 77.0641C63.1643 77.0907 49.1046 77.0995 35.0447 77.0907C35.0699 76.9333 35.1054 76.778 35.1517 76.6246C35.0755 76.3032 34.9952 75.9836 34.911 75.6659C36.7153 75.6922 38.4985 75.5058 40.2603 75.1066C41.4291 74.8507 42.5881 74.5577 43.7374 74.2278C45.5805 73.6384 47.3102 72.8219 48.9262 71.7776C49.9803 71.0743 50.9967 70.3198 51.9754 69.5139C53.1228 68.5139 54.1346 67.3999 55.0111 66.1716C56.0874 64.7689 56.9791 63.2509 57.6858 61.6175C57.8987 61.1059 58.0904 60.5866 58.2608 60.0596C60.6728 60.2281 63.08 60.1658 65.4824 59.8731C67.7484 59.5932 70.0039 59.247 72.2493 58.8345C73.0627 58.672 73.8651 58.4678 74.6565 58.222C75.9187 57.7927 77.1758 57.3623 78.4278 56.9303Z" fill="#4DA546"></path><path opacity="0.983" fill-rule="evenodd" clip-rule="evenodd" d="M114.482 65.6922C115.458 65.6192 116.376 65.8102 117.237 66.2648C118.251 66.9114 118.714 67.8393 118.628 69.0478C118.155 69.0523 117.683 69.0478 117.211 69.0345C117.134 68.9631 117.063 68.8875 116.997 68.8081C117.022 67.9764 116.639 67.4217 115.846 67.1436C115.141 66.9295 114.446 66.9561 113.76 67.2235C112.982 67.6686 112.656 68.3386 112.784 69.2342C112.826 69.6252 113.009 69.9315 113.332 70.153C113.539 70.2737 113.753 70.3802 113.974 70.4726C114.741 70.7302 115.508 70.9874 116.274 71.245C116.948 71.4601 117.563 71.7797 118.12 72.2037C118.721 72.7632 119.015 73.4557 119.003 74.281C118.958 75.6832 118.289 76.6595 116.997 77.2105C115.815 77.6398 114.611 77.7107 113.386 77.4236C111.592 76.8755 110.745 75.6637 110.845 73.7883C111.317 73.7838 111.79 73.7883 112.262 73.8016C112.329 73.8682 112.396 73.9348 112.463 74.0014C112.468 75.3995 113.167 76.1586 114.563 76.2784C115.223 76.3314 115.847 76.2073 116.435 75.9055C117.148 75.4443 117.438 74.7918 117.304 73.9481C117.205 73.4764 116.942 73.126 116.515 72.8961C116.308 72.784 116.094 72.6863 115.873 72.6032C115.206 72.3848 114.537 72.1717 113.867 71.964C113.221 71.7531 112.623 71.4514 112.075 71.0585C111.315 70.4002 110.998 69.5703 111.126 68.5684C111.273 67.3828 111.892 66.5439 112.985 66.0517C113.469 65.8557 113.968 65.7359 114.482 65.6922Z" fill="#535453"></path><path opacity="0.983" fill-rule="evenodd" clip-rule="evenodd" d="M157.116 65.6922C158.027 65.6272 158.892 65.7916 159.711 66.1849C160.733 66.7759 161.317 67.6593 161.463 68.8348C161.485 69.0034 161.494 69.1719 161.49 69.3408C161.423 69.4074 161.356 69.474 161.289 69.5405C160.808 69.5539 160.326 69.5584 159.845 69.5539C159.768 67.6569 158.788 66.8267 156.903 67.0638C156.109 67.259 155.579 67.7426 155.311 68.5152C155.085 69.189 154.97 69.8814 154.963 70.5925C154.935 71.5257 154.953 72.4578 155.017 73.3889C155.066 74.1585 155.307 74.8597 155.739 75.4928C156.237 76.0425 156.861 76.3088 157.611 76.2917C158.771 76.26 159.493 75.6829 159.778 74.5607C159.897 74.1066 159.955 73.645 159.952 73.1758C160.504 73.1758 161.057 73.1758 161.61 73.1758C161.692 74.5425 161.246 75.701 160.273 76.6513C159.334 77.3911 158.264 77.7019 157.063 77.5834C155.174 77.4249 154.011 76.4262 153.573 74.5873C153.363 73.5777 153.269 72.5566 153.292 71.5246C153.259 70.4764 153.379 69.4465 153.653 68.4353C154.189 66.7431 155.343 65.8286 157.116 65.6922Z" fill="#535453"></path><path opacity="0.983" fill-rule="evenodd" clip-rule="evenodd" d="M175.786 65.6922C176.761 65.6192 177.679 65.8102 178.541 66.2648C179.554 66.9114 180.017 67.8393 179.931 69.0478C179.459 69.0523 178.986 69.0478 178.514 69.0345C178.438 68.9631 178.366 68.8875 178.3 68.8081C178.325 67.9764 177.942 67.4217 177.15 67.1436C176.444 66.9295 175.749 66.9561 175.063 67.2235C174.285 67.6686 173.96 68.3386 174.087 69.2342C174.129 69.6252 174.312 69.9315 174.636 70.153C174.842 70.2737 175.056 70.3802 175.277 70.4726C176.042 70.7355 176.809 70.9928 177.578 71.245C178.251 71.4601 178.866 71.7797 179.423 72.2037C180.024 72.7632 180.318 73.4557 180.306 74.281C180.261 75.6832 179.593 76.6595 178.3 77.2105C177.118 77.6398 175.915 77.7107 174.689 77.4236C172.895 76.8755 172.048 75.6637 172.148 73.7883C172.621 73.7838 173.093 73.7883 173.566 73.8016C173.633 73.8682 173.699 73.9348 173.766 74.0014C173.771 75.3995 174.471 76.1586 175.866 76.2784C176.527 76.3314 177.151 76.2073 177.738 75.9055C178.452 75.4443 178.741 74.7918 178.607 73.9481C178.508 73.4764 178.246 73.126 177.818 72.8961C177.611 72.784 177.397 72.6863 177.176 72.6032C176.509 72.3848 175.841 72.1717 175.17 71.964C174.524 71.7531 173.926 71.4514 173.378 71.0585C172.618 70.4002 172.302 69.5703 172.429 68.5684C172.576 67.3828 173.196 66.5439 174.288 66.0517C174.772 65.8557 175.271 65.7359 175.786 65.6922Z" fill="#535453"></path><path opacity="0.986" fill-rule="evenodd" clip-rule="evenodd" d="M121.169 65.9585C123.255 65.954 125.341 65.9585 127.428 65.9719C127.629 66.1351 127.7 66.3482 127.642 66.611C127.7 66.8739 127.629 67.0869 127.428 67.2502C125.823 67.2635 124.218 67.268 122.613 67.2635C122.613 68.4175 122.613 69.5717 122.613 70.7257C124.066 70.7211 125.52 70.7257 126.973 70.739C127.174 70.9022 127.245 71.1153 127.187 71.3781C127.245 71.641 127.174 71.854 126.973 72.0173C125.52 72.0306 124.066 72.0351 122.613 72.0306C122.613 73.3622 122.613 74.6938 122.613 76.0254C124.245 76.0209 125.876 76.0254 127.508 76.0387C127.575 76.1053 127.642 76.1719 127.709 76.2385C127.726 76.5402 127.726 76.8422 127.709 77.144C127.65 77.2017 127.593 77.2593 127.535 77.3171C125.413 77.3349 123.291 77.3349 121.169 77.3171C121.102 77.2505 121.035 77.1839 120.968 77.1173C120.95 73.4687 120.95 69.8202 120.968 66.1716C121.041 66.1039 121.107 66.0331 121.169 65.9585Z" fill="#535453"></path><path opacity="0.984" fill-rule="evenodd" clip-rule="evenodd" d="M129.701 65.9585C130.833 65.954 131.966 65.9585 133.098 65.9719C133.909 65.9852 134.685 66.1537 135.425 66.4779C136.126 66.8387 136.567 67.4025 136.749 68.169C136.975 69.1853 136.779 70.1086 136.16 70.9387C135.932 71.1888 135.669 71.3928 135.371 71.5512C136.159 71.9683 136.573 72.6253 136.615 73.522C136.644 74.1521 136.67 74.7825 136.695 75.4129C136.71 75.8214 136.799 76.2121 136.963 76.5847C137.021 76.7008 137.115 76.7719 137.244 76.7977C137.275 76.9032 137.279 77.0097 137.257 77.1173C137.19 77.1839 137.123 77.2505 137.056 77.3171C136.56 77.3392 136.065 77.3346 135.572 77.3037C135.347 76.8678 135.204 76.4062 135.144 75.9189C135.053 75.023 134.973 74.1263 134.903 73.2291C134.777 72.8277 134.514 72.5569 134.114 72.4168C133.644 72.2724 133.163 72.2013 132.67 72.2037C132.162 72.1904 131.654 72.1859 131.145 72.1904C131.15 73.8416 131.145 75.4928 131.132 77.144C131.074 77.2017 131.016 77.2593 130.958 77.3171C130.539 77.3349 130.12 77.3349 129.701 77.3171C129.634 77.2505 129.567 77.1839 129.501 77.1173C129.483 73.4687 129.483 69.8202 129.501 66.1716C129.573 66.1039 129.64 66.0331 129.701 65.9585ZM131.145 67.2635C131.805 67.259 132.465 67.2635 133.125 67.2768C133.67 67.2752 134.179 67.4084 134.649 67.6763C134.898 67.8824 135.054 68.1445 135.117 68.4619C135.353 69.9142 134.733 70.7174 133.258 70.8721C132.554 70.8854 131.85 70.89 131.145 70.8854C131.145 69.6782 131.145 68.4707 131.145 67.2635Z" fill="#535453"></path><path opacity="0.984" fill-rule="evenodd" clip-rule="evenodd" d="M138.447 65.9585C138.929 65.9585 139.41 65.9585 139.892 65.9585C140.851 69.0231 141.818 72.0857 142.794 75.1465C143.785 72.0919 144.779 69.038 145.776 65.9852C146.231 65.9497 146.685 65.9497 147.14 65.9852C147.208 66.0749 147.271 66.1681 147.327 66.2648C146.101 69.9445 144.875 73.624 143.65 77.3037C143.085 77.3301 142.519 77.3392 141.951 77.3304C140.723 73.6344 139.483 69.9413 138.233 66.2515C138.305 66.1535 138.377 66.0557 138.447 65.9585Z" fill="#535453"></path><path opacity="0.986" fill-rule="evenodd" clip-rule="evenodd" d="M149.253 65.9585C149.672 65.954 150.091 65.9585 150.51 65.9719C150.568 66.0296 150.626 66.0872 150.684 66.145C150.702 69.8114 150.702 73.4775 150.684 77.144C150.626 77.2017 150.568 77.2593 150.51 77.3171C150.091 77.3349 149.672 77.3349 149.253 77.3171C149.186 77.2505 149.119 77.1839 149.052 77.1173C149.034 73.4687 149.034 69.8202 149.052 66.1716C149.125 66.1039 149.191 66.0331 149.253 65.9585Z" fill="#535453"></path><path opacity="0.986" fill-rule="evenodd" clip-rule="evenodd" d="M164.231 65.9585C166.317 65.954 168.404 65.9585 170.49 65.9719C170.691 66.1351 170.762 66.3482 170.704 66.611C170.762 66.8739 170.691 67.0869 170.49 67.2502C168.885 67.2635 167.28 67.268 165.675 67.2635C165.675 68.4175 165.675 69.5717 165.675 70.7257C167.129 70.7211 168.582 70.7257 170.035 70.739C170.236 70.9022 170.307 71.1153 170.249 71.3781C170.307 71.641 170.236 71.854 170.035 72.0173C168.582 72.0306 167.129 72.0351 165.675 72.0306C165.675 73.3622 165.675 74.6938 165.675 76.0254C167.307 76.0209 168.939 76.0254 170.57 76.0387C170.637 76.1053 170.704 76.1719 170.771 76.2385C170.789 76.5402 170.789 76.8422 170.771 77.144C170.713 77.2017 170.655 77.2593 170.597 77.3171C168.475 77.3349 166.353 77.3349 164.231 77.3171C164.164 77.2505 164.097 77.1839 164.03 77.1173C164.013 73.4687 164.013 69.8202 164.03 66.1716C164.103 66.1039 164.17 66.0331 164.231 65.9585Z" fill="#535453"></path><path opacity="0.988" fill-rule="evenodd" clip-rule="evenodd" d="M83.8039 68.7815C83.8924 68.8012 83.9681 68.8457 84.0312 68.9147C84.1709 69.2105 84.2958 69.5123 84.4057 69.8201C85.2675 72.221 86.0565 74.6445 86.7728 77.0907C84.5172 77.0952 82.2614 77.0907 80.0059 77.0773C81.0177 75.8845 81.887 74.5929 82.6137 73.2024C82.9311 72.4791 83.1363 71.7243 83.2288 70.9387C83.4166 70.2178 83.6081 69.4987 83.8039 68.7815Z" fill="#4DA546"></path></g><defs><clipPath id="clip0_45_204"><rect width="272" height="78" fill="white"></rect></clipPath></defs></svg>